<?xml version="1.0" encoding="UTF-8"?>
<!--Generator: Apple Native CoreSVG 341-->
<!DOCTYPE svg
PUBLIC "-//W3C//DTD SVG 1.1//EN"
       "http://www.w3.org/Graphics/SVG/1.1/DTD/svg11.dtd">
<svg version="1.1" xmlns="http://www.w3.org/2000/svg" xmlns:xlink="http://www.w3.org/1999/xlink" viewBox="0 0 75.7402 75.7402">
 <g>
  <rect height="75.7402" opacity="0" width="75.7402" x="0" y="0"/>
  <path d="M37.8516 75.7031C58.7441 75.7031 75.7031 58.7441 75.7031 37.8516C75.7031 16.959 58.7441 0 37.8516 0C16.959 0 0 16.959 0 37.8516C0 58.7441 16.959 75.7031 37.8516 75.7031ZM37.8516 69.3945C20.4102 69.3945 6.30859 55.293 6.30859 37.8516C6.30859 20.4102 20.4102 6.30859 37.8516 6.30859C55.293 6.30859 69.3945 20.4102 69.3945 37.8516C69.3945 55.293 55.293 69.3945 37.8516 69.3945Z" fill="white" fill-opacity="0.85"/>
  <path d="M37.8516 54.0684C44.1602 54.0684 49.7266 51.1367 49.7266 44.7539C49.7266 39.1875 45.2363 37.0352 40.1895 35.8477L36.627 34.9941C33.3984 34.252 30.6523 32.8789 30.6523 29.873C30.6523 26.3477 34.4375 24.752 37.8516 24.752C41.5625 24.752 44.0859 26.3477 45.0879 29.4648C45.459 30.5781 46.1641 31.1348 47.166 31.1348C48.0938 31.1348 49.1699 30.541 49.1699 29.2422C49.1699 24.4922 43.084 21.1152 37.8516 21.1152C31.9141 21.1152 26.4961 24.4551 26.4961 30.1699C26.4961 35.6992 31.1348 37.8145 35.6992 38.8906L39.2617 39.7441C42.5645 40.5234 45.6074 41.7109 45.6074 45.0879C45.6074 49.1699 41.7109 50.4316 37.9629 50.4316C34.0293 50.4316 31.2832 49.1328 29.9473 45.5703C29.502 44.457 28.8711 43.9746 27.8691 43.9746C26.793 43.9746 25.9023 44.7168 25.9023 45.9043C25.9023 46.2754 25.9766 46.6465 26.125 47.0918C27.5352 51.9902 32.9902 54.0684 37.8516 54.0684ZM37.8145 58.4844C38.4824 58.4844 39.0391 57.9277 39.0391 57.2598L39.0391 17.998C39.0391 17.3301 38.4824 16.7734 37.8145 16.7734C37.1465 16.7734 36.5898 17.3301 36.5898 17.998L36.5898 57.2598C36.5898 57.9277 37.1465 58.4844 37.8145 58.4844Z" fill="white" fill-opacity="0.85"/>
 </g>
</svg>
