<?xml version="1.0" encoding="UTF-8"?>
<!--Generator: Apple Native CoreSVG 341-->
<!DOCTYPE svg
PUBLIC "-//W3C//DTD SVG 1.1//EN"
       "http://www.w3.org/Graphics/SVG/1.1/DTD/svg11.dtd">
<svg version="1.1" xmlns="http://www.w3.org/2000/svg" xmlns:xlink="http://www.w3.org/1999/xlink" viewBox="0 0 101.457 79.5996">
 <g>
  <rect height="79.5996" opacity="0" width="101.457" x="0" y="0"/>
  <path d="M23.1721 22.6417C12.9963 29.1307 6.49414 37.2864 6.49414 39.8184C6.49414 45.0508 26.2734 65.7578 50.7285 65.7578C55.4457 65.7578 59.9942 64.9803 64.2542 63.6747L69.0625 68.4772C63.5075 70.4416 57.3438 71.6211 50.7285 71.6211C21.1152 71.6211 0 47.3887 0 39.8184C0 35.448 6.98096 25.6031 18.5544 18.0295ZM101.42 39.8184C101.42 44.0504 94.9486 53.4896 83.994 60.9882L79.4596 56.4565C88.9273 50.246 94.9258 42.6945 94.9258 39.8184C94.9258 35.4023 75.0723 13.8789 50.7285 13.8789C46.5187 13.8789 42.4474 14.5167 38.6072 15.6285L33.7296 10.7538C38.9507 9.03343 44.6624 8.01562 50.7285 8.01562C80.6758 8.01562 101.42 32.2109 101.42 39.8184ZM59.2844 58.7108C56.6816 59.9062 53.7822 60.5625 50.7285 60.5625C39.2246 60.5625 29.873 51.248 29.873 39.7441C29.873 36.6911 30.5317 33.7922 31.7305 31.1898ZM71.5469 39.7441C71.5469 42.3625 71.0643 44.8675 70.1624 47.1649L43.2947 20.3132C45.5974 19.4095 48.1071 18.9258 50.7285 18.9258C62.2324 18.9258 71.5469 28.2402 71.5469 39.7441Z" fill="white" fill-opacity="0.85"/>
  <path d="M79.7109 71.9551C80.8613 73.1055 82.6055 73.1797 83.7559 71.9551C84.9805 70.7305 84.9062 69.0605 83.7559 67.9102L21.709 5.90039C20.5957 4.78711 18.7773 4.78711 17.627 5.90039C16.5508 6.97656 16.5508 8.86914 17.627 9.94531Z" fill="white" fill-opacity="0.85"/>
 </g>
</svg>
