<svg xmlns="http://www.w3.org/2000/svg" xmlns:xlink="http://www.w3.org/1999/xlink" version="1.1" viewBox="0 0 101.457 63.643"><g><rect width="101.457" height="63.643" x="0" y="0" opacity="0"/><path fill="#fff" fill-opacity=".85" d="M50.7285 63.6426C80.7129 63.6426 101.42 39.4102 101.42 31.8398C101.42 24.2324 80.6758 0.0371094 50.7285 0.0371094C21.1523 0.0371094 0 24.2324 0 31.8398C0 39.4102 21.1152 63.6426 50.7285 63.6426ZM50.7285 57.7793C26.2734 57.7793 6.49414 37.0723 6.49414 31.8398C6.49414 27.4238 26.2734 5.90039 50.7285 5.90039C75.0723 5.90039 94.9258 27.4238 94.9258 31.8398C94.9258 37.0723 75.0723 57.7793 50.7285 57.7793ZM50.7285 52.584C62.2324 52.584 71.5469 43.2695 71.5469 31.7656C71.5469 20.2617 62.2324 10.9473 50.7285 10.9473C39.2246 10.9473 29.873 20.2617 29.873 31.7656C29.873 43.2695 39.2246 52.584 50.7285 52.584ZM50.7285 38.7051C46.9062 38.7051 43.8262 35.625 43.8262 31.8027C43.8262 27.9805 46.9062 24.9004 50.7285 24.9004C54.5508 24.9004 57.6309 27.9805 57.6309 31.8027C57.6309 35.625 54.5508 38.7051 50.7285 38.7051Z"/></g></svg>