<svg xmlns="http://www.w3.org/2000/svg" xmlns:xlink="http://www.w3.org/1999/xlink" version="1.1" viewBox="0 0 68.689 91.475"><g><rect width="68.689" height="91.475" x="0" y="0" opacity="0"/><path fill="#fff" fill-opacity=".85" d="M32.248 18.0723C32.7305 18.0723 32.9902 17.7754 33.0645 17.3301C34.1777 11.3184 34.0664 11.0215 40.5234 9.87109C40.9688 9.75977 41.2656 9.5 41.2656 9.01758C41.2656 8.57227 40.9688 8.27539 40.5234 8.20117C34.0664 7.05078 34.1777 6.75391 33.0645 0.742188C32.9902 0.296875 32.7305 0 32.248 0C31.7656 0 31.5059 0.296875 31.4316 0.742188C30.3184 6.75391 30.4297 7.05078 23.9727 8.20117C23.4902 8.27539 23.2305 8.57227 23.2305 9.01758C23.2305 9.5 23.4902 9.75977 23.9727 9.87109C30.4297 11.0215 30.3184 11.3184 31.4316 17.3301C31.5059 17.7754 31.7656 18.0723 32.248 18.0723Z"/><path fill="#fff" fill-opacity=".85" d="M14.2871 43.6035C14.9922 43.6035 15.4746 43.1211 15.5488 42.4531C16.8848 32.5449 17.2188 32.5449 27.4609 30.5781C28.0918 30.4668 28.5742 30.0215 28.5742 29.3164C28.5742 28.6484 28.0918 28.166 27.4609 28.0918C17.2188 26.6445 16.8477 26.3105 15.5488 16.2539C15.4746 15.5488 14.9922 15.0664 14.2871 15.0664C13.6191 15.0664 13.1367 15.5488 13.0254 16.291C11.8379 26.1992 11.2812 26.1621 1.11328 28.0918C0.482422 28.2031 0 28.6484 0 29.3164C0 30.0586 0.482422 30.4668 1.26172 30.5781C11.3555 32.2109 11.8379 32.4707 13.0254 42.3789C13.1367 43.1211 13.6191 43.6035 14.2871 43.6035Z"/><path fill="#fff" fill-opacity=".85" d="M39.4473 84.6465C40.4121 84.6465 41.1172 83.9414 41.3027 82.9395C43.9375 62.6406 46.7949 59.5234 66.9082 57.2969C67.9473 57.1855 68.6523 56.4434 68.6523 55.4414C68.6523 54.4766 67.9473 53.7344 66.9082 53.623C46.7949 51.3965 43.9375 48.2793 41.3027 27.9434C41.1172 26.9414 40.4121 26.2734 39.4473 26.2734C38.4824 26.2734 37.7773 26.9414 37.6289 27.9434C34.9941 48.2793 32.0996 51.3965 12.0234 53.623C10.9473 53.7344 10.2422 54.4766 10.2422 55.4414C10.2422 56.4434 10.9473 57.1855 12.0234 57.2969C32.0625 59.9316 34.8457 62.6406 37.6289 82.9395C37.7773 83.9414 38.4824 84.6465 39.4473 84.6465Z"/></g></svg>